<?xml version="1.0" standalone="no"?>
<!DOCTYPE svg PUBLIC "-//W3C//DTD SVG 20010904//EN"
 "http://www.w3.org/TR/2001/REC-SVG-20010904/DTD/svg10.dtd">
<svg version="1.0" xmlns="http://www.w3.org/2000/svg"
 width="1280.000000pt" height="1088.000000pt" viewBox="0 0 1280.000000 1088.000000"
 preserveAspectRatio="xMidYMid meet">
<metadata>
Created by potrace 1.15, written by Peter Selinger 2001-2017
</metadata>
<g transform="translate(0.000000,1088.000000) scale(0.100000,-0.100000)"
fill="#000000" stroke="none">
<path d="M3715 10874 c-16 -2 -66 -9 -110 -15 -525 -69 -1029 -397 -1313 -855
-343 -553 -376 -1238 -86 -1815 97 -195 194 -329 352 -489 94 -95 102 -107 91
-125 -130 -207 -280 -511 -371 -753 -46 -123 -128 -379 -128 -400 0 -19 -17
-14 -185 52 -329 129 -753 221 -1048 228 -42 1 -77 5 -77 9 0 3 7 23 15 42 30
73 13 181 -40 251 -14 18 -49 46 -77 62 -45 24 -64 29 -123 29 -101 -1 -179
-48 -228 -140 -31 -57 -30 -164 1 -223 l23 -43 -43 23 c-59 31 -166 32 -223 1
-83 -44 -134 -121 -142 -215 -5 -51 -2 -66 26 -122 48 -98 122 -145 229 -146
29 0 62 5 73 10 13 7 19 7 19 0 0 -5 -4 -10 -10 -10 -19 0 -91 -74 -113 -114
-34 -64 -31 -165 7 -234 103 -185 368 -174 455 19 l17 37 59 -36 c106 -63 376
-189 515 -241 175 -64 378 -121 562 -157 l148 -29 0 -197 c0 -206 10 -369 36
-577 105 -852 472 -1673 1042 -2334 l84 -97 -60 -138 c-155 -352 -248 -691
-289 -1043 l-16 -146 -67 5 c-82 6 -153 -22 -206 -80 -49 -54 -66 -101 -66
-175 -1 -96 51 -180 137 -226 54 -29 174 -30 225 -3 l35 19 -47 -50 c-31 -34
-52 -68 -62 -104 -20 -65 -20 -82 -1 -146 40 -135 193 -215 324 -168 90 31
155 109 170 202 8 46 8 47 19 22 19 -46 75 -101 127 -125 99 -47 222 -21 294
61 46 53 63 99 63 171 -1 124 -85 227 -204 249 l-36 7 56 86 c76 116 187 337
250 497 51 132 114 317 127 374 3 17 10 31 14 31 4 0 47 -25 96 -56 566 -356
1156 -567 1830 -656 150 -20 214 -22 535 -22 321 0 385 2 535 22 674 89 1264
300 1830 656 49 31 92 56 96 56 4 0 11 -14 14 -31 13 -57 76 -242 127 -374 63
-160 174 -381 250 -497 l56 -86 -36 -7 c-119 -22 -203 -125 -204 -249 0 -72
17 -118 63 -171 72 -82 195 -108 294 -61 52 24 108 79 127 125 11 25 11 24 19
-22 15 -93 80 -171 170 -202 131 -47 284 33 324 168 19 64 19 81 -1 146 -10
36 -31 70 -62 104 l-47 50 35 -19 c51 -27 171 -26 225 3 86 46 138 130 137
226 0 74 -17 121 -66 175 -53 58 -124 86 -206 80 l-67 -5 -16 146 c-41 352
-134 691 -289 1043 l-60 138 84 97 c520 603 862 1319 1008 2109 45 244 70 528
70 802 l0 197 148 29 c184 36 387 93 562 157 139 52 409 178 515 241 l59 36
17 -37 c41 -92 131 -151 231 -151 100 0 175 45 224 132 38 69 41 170 7 234
-22 40 -94 114 -113 114 -6 0 -10 5 -10 10 0 7 6 7 19 0 11 -5 44 -10 73 -10
107 1 181 48 229 146 28 56 31 71 26 122 -8 95 -61 173 -147 218 -52 27 -162
25 -218 -4 l-43 -23 23 43 c31 59 32 166 1 223 -49 92 -127 139 -228 140 -59
0 -78 -5 -123 -29 -28 -16 -63 -44 -77 -62 -53 -70 -70 -178 -40 -251 8 -19
15 -39 15 -42 0 -4 -35 -8 -77 -9 -295 -7 -719 -99 -1048 -228 -168 -66 -185
-71 -185 -52 0 21 -82 277 -128 400 -91 242 -241 546 -371 753 -11 18 -3 30
91 125 358 362 547 817 548 1317 1 858 -581 1599 -1419 1808 -160 40 -247 49
-441 49 -240 0 -404 -27 -621 -102 -504 -176 -919 -579 -1115 -1082 -38 -99
-12 -92 -239 -62 -220 30 -512 42 -752 31 -109 -5 -270 -19 -358 -31 -227 -30
-201 -37 -239 62 -239 615 -781 1054 -1441 1166 -87 15 -389 27 -450 18z"/>
</g>
</svg>
