<svg width="1707" height="1451" viewBox="0 0 1707 1451" fill="none" xmlns="http://www.w3.org/2000/svg">
<g clip-path="url(#clip0_3_4)">
<path d="M495.333 0.799827C493.2 1.06649 486.533 1.99983 480.667 2.79983C410.667 11.9998 343.467 55.7332 305.6 116.8C259.867 190.533 255.467 281.867 294.133 358.8C307.067 384.8 320 402.667 341.067 424C353.6 436.667 354.667 438.267 353.2 440.667C335.867 468.267 315.867 508.8 303.733 541.067C297.6 557.467 286.667 591.6 286.667 594.4C286.667 596.933 284.4 596.267 262 587.467C218.133 570.267 161.6 558 122.267 557.067C116.667 556.933 112 556.4 112 555.867C112 555.467 112.933 552.8 114 550.267C118 540.533 115.733 526.133 108.667 516.8C106.8 514.4 102.133 510.667 98.4 508.533C92.4 505.333 89.8667 504.667 82 504.667C68.5333 504.8 58.1333 511.067 51.6 523.333C47.4667 530.933 47.6 545.2 51.7333 553.067L54.8 558.8L49.0667 555.733C41.2 551.6 26.9333 551.467 19.3333 555.6C8.26666 561.467 1.46666 571.733 0.399991 584.267C-0.266675 591.067 0.133325 593.067 3.86666 600.533C10.2667 613.6 20.1333 619.867 34.4 620C38.2667 620 42.6667 619.333 44.1333 618.667C45.8667 617.733 46.6667 617.733 46.6667 618.667C46.6667 619.333 46.1333 620 45.3333 620C42.8 620 33.2 629.867 30.2667 635.2C25.7333 643.733 26.1333 657.2 31.2 666.4C44.9333 691.067 80.2667 689.6 91.8667 663.867L94.1333 658.933L102 663.733C116.133 672.133 152.133 688.933 170.667 695.867C194 704.4 221.067 712 245.6 716.8L265.333 720.667V746.933C265.333 774.4 266.667 796.133 270.133 823.867C284.133 937.467 333.067 1046.93 409.067 1135.07L420.267 1148L412.267 1166.4C391.6 1213.33 379.2 1258.53 373.733 1305.47L371.6 1324.93L362.667 1324.27C351.733 1323.47 342.267 1327.2 335.2 1334.93C328.667 1342.13 326.4 1348.4 326.4 1358.27C326.267 1371.07 333.2 1382.27 344.667 1388.4C351.867 1392.27 367.867 1392.4 374.667 1388.8L379.333 1386.27L373.067 1392.93C368.933 1397.47 366.133 1402 364.8 1406.8C362.133 1415.47 362.133 1417.73 364.667 1426.27C370 1444.27 390.4 1454.93 407.867 1448.67C419.867 1444.53 428.533 1434.13 430.533 1421.73C431.6 1415.6 431.6 1415.47 433.067 1418.8C435.6 1424.93 443.067 1432.27 450 1435.47C463.2 1441.73 479.6 1438.27 489.2 1427.33C495.333 1420.27 497.6 1414.13 497.6 1404.53C497.467 1388 486.267 1374.27 470.4 1371.33L465.6 1370.4L473.067 1358.93C483.2 1343.47 498 1314 506.4 1292.67C513.2 1275.07 521.6 1250.4 523.333 1242.8C523.733 1240.53 524.667 1238.67 525.2 1238.67C525.733 1238.67 531.467 1242 538 1246.13C613.467 1293.6 692.133 1321.73 782 1333.6C802 1336.27 810.533 1336.53 853.333 1336.53C896.133 1336.53 904.667 1336.27 924.667 1333.6C1014.53 1321.73 1093.2 1293.6 1168.67 1246.13C1175.2 1242 1180.93 1238.67 1181.47 1238.67C1182 1238.67 1182.93 1240.53 1183.33 1242.8C1185.07 1250.4 1193.47 1275.07 1200.27 1292.67C1208.67 1314 1223.47 1343.47 1233.6 1358.93L1241.07 1370.4L1236.27 1371.33C1220.4 1374.27 1209.2 1388 1209.07 1404.53C1209.07 1414.13 1211.33 1420.27 1217.47 1427.33C1227.07 1438.27 1243.47 1441.73 1256.67 1435.47C1263.6 1432.27 1271.07 1424.93 1273.6 1418.8C1275.07 1415.47 1275.07 1415.6 1276.13 1421.73C1278.13 1434.13 1286.8 1444.53 1298.8 1448.67C1316.27 1454.93 1336.67 1444.27 1342 1426.27C1344.53 1417.73 1344.53 1415.47 1341.87 1406.8C1340.53 1402 1337.73 1397.47 1333.6 1392.93L1327.33 1386.27L1332 1388.8C1338.8 1392.4 1354.8 1392.27 1362 1388.4C1373.47 1382.27 1380.4 1371.07 1380.27 1358.27C1380.27 1348.4 1378 1342.13 1371.47 1334.93C1364.4 1327.2 1354.93 1323.47 1344 1324.27L1335.07 1324.93L1332.93 1305.47C1327.47 1258.53 1315.07 1213.33 1294.4 1166.4L1286.4 1148L1297.6 1135.07C1366.93 1054.67 1412.53 959.2 1432 853.867C1438 821.333 1441.33 783.467 1441.33 746.933V720.667L1461.07 716.8C1485.6 712 1512.67 704.4 1536 695.867C1554.53 688.933 1590.53 672.133 1604.67 663.733L1612.53 658.933L1614.8 663.867C1620.27 676.133 1632.27 684 1645.6 684C1658.93 684 1668.93 678 1675.47 666.4C1680.53 657.2 1680.93 643.733 1676.4 635.2C1673.47 629.867 1663.87 620 1661.33 620C1660.53 620 1660 619.333 1660 618.667C1660 617.733 1660.8 617.733 1662.53 618.667C1664 619.333 1668.4 620 1672.27 620C1686.53 619.867 1696.4 613.6 1702.8 600.533C1706.53 593.067 1706.93 591.067 1706.27 584.267C1705.2 571.6 1698.13 561.2 1686.67 555.2C1679.73 551.6 1665.07 551.867 1657.6 555.733L1651.87 558.8L1654.93 553.067C1659.07 545.2 1659.2 530.933 1655.07 523.333C1648.53 511.067 1638.13 504.8 1624.67 504.667C1616.8 504.667 1614.27 505.333 1608.27 508.533C1604.53 510.667 1599.87 514.4 1598 516.8C1590.93 526.133 1588.67 540.533 1592.67 550.267C1593.73 552.8 1594.67 555.467 1594.67 555.867C1594.67 556.4 1590 556.933 1584.4 557.067C1545.07 558 1488.53 570.267 1444.67 587.467C1422.27 596.267 1420 596.933 1420 594.4C1420 591.6 1409.07 557.467 1402.93 541.067C1390.8 508.8 1370.8 468.267 1353.47 440.667C1352 438.267 1353.07 436.667 1365.6 424C1413.33 375.733 1438.53 315.067 1438.67 248.4C1438.8 134 1361.2 35.1998 1249.47 7.33316C1228.13 1.99983 1216.53 0.799827 1190.67 0.799827C1158.67 0.799827 1136.8 4.39983 1107.87 14.3998C1040.67 37.8665 985.333 91.5998 959.2 158.667C954.133 171.867 957.6 170.933 927.333 166.933C898 162.933 859.067 161.333 827.067 162.8C812.533 163.467 791.067 165.333 779.333 166.933C749.067 170.933 752.533 171.867 747.467 158.667C715.6 76.6665 643.333 18.1332 555.333 3.19983C543.733 1.19983 503.467 -0.400173 495.333 0.799827Z" fill="white"/>
</g>
<defs>
<clipPath id="clip0_3_4">
<rect width="1706.67" height="1450.67" fill="white"/>
</clipPath>
</defs>
</svg>
